<svg width="200" height="40" viewBox="0 0 241 45" fill="none" xmlns="http://www.w3.org/2000/svg">
<path d="M32.676 38.9445C32.676 40.4379 32.1427 41.7179 31.076 42.7845C30.0093 43.8512 28.7293 44.3845 27.236 44.3845H16.42C11.94 44.3845 8.12133 42.8059 4.964 39.6485C1.80667 36.4485 0.228 32.6085 0.228 28.1285C0.228 23.6485 1.80667 19.8299 4.964 16.6725C8.12133 13.5152 11.94 11.9365 16.42 11.9365C20.9 11.9365 24.7187 13.5152 27.876 16.6725C31.076 19.8299 32.676 23.6485 32.676 28.1285V38.9445ZM21.796 33.5045V28.1285C21.796 26.6779 21.2627 25.4405 20.196 24.4165C19.1293 23.3499 17.8707 22.8165 16.42 22.8165C14.9267 22.8165 13.668 23.3285 12.644 24.3525C11.62 25.3765 11.108 26.6352 11.108 28.1285C11.108 29.6219 11.62 30.9019 12.644 31.9685C13.668 32.9925 14.9267 33.5045 16.42 33.5045H21.796Z" fill="#4BADAC"/>
<path d="M68.2965 38.9445C68.2965 40.4379 67.7632 41.7179 66.6965 42.7845C65.6298 43.8512 64.3498 44.3845 62.8565 44.3845C61.3632 44.3845 60.0832 43.8512 59.0165 42.7845C57.9498 41.7179 57.4165 40.4379 57.4165 38.9445V28.1285C57.4165 26.6352 56.8832 25.3765 55.8165 24.3525C54.7925 23.2859 53.5552 22.7525 52.1045 22.7525C50.6538 22.7525 49.3952 23.2859 48.3285 24.3525C47.2618 25.3765 46.7285 26.6352 46.7285 28.1285V38.9445C46.7285 40.4379 46.1952 41.7179 45.1285 42.7845C44.0618 43.8512 42.7818 44.3845 41.2885 44.3845C39.7952 44.3845 38.5152 43.8512 37.4485 42.7845C36.3818 41.7179 35.8485 40.4379 35.8485 38.9445V28.1285C35.8485 23.6485 37.4272 19.8299 40.5845 16.6725C43.7845 13.4725 47.6245 11.8725 52.1045 11.8725C56.5845 11.8725 60.4032 13.4725 63.5605 16.6725C66.7178 19.8299 68.2965 23.6485 68.2965 28.1285V38.9445Z" fill="#C1D64D"/>
<path d="M82.2285 6.36852C82.2285 7.86185 81.6952 9.14185 80.6285 10.2085C79.5618 11.2752 78.2818 11.8085 76.7885 11.8085C75.2525 11.8085 73.9512 11.2752 72.8845 10.2085C71.8605 9.14185 71.3485 7.86185 71.3485 6.36852C71.3485 4.87519 71.8605 3.59519 72.8845 2.52852C73.9512 1.46185 75.2525 0.92852 76.7885 0.92852C78.2818 0.92852 79.5618 1.46185 80.6285 2.52852C81.6952 3.59519 82.2285 4.87519 82.2285 6.36852ZM82.2285 38.9445C82.2285 40.4379 81.6952 41.7179 80.6285 42.7845C79.5618 43.8512 78.2818 44.3845 76.7885 44.3845C75.2525 44.3845 73.9512 43.8512 72.8845 42.7845C71.8605 41.7179 71.3485 40.4379 71.3485 38.9445V21.2805C71.3485 19.7872 71.8605 18.5072 72.8845 17.4405C73.9512 16.3739 75.2525 15.8405 76.7885 15.8405C78.2818 15.8405 79.5618 16.3739 80.6285 17.4405C81.6952 18.5072 82.2285 19.7872 82.2285 21.2805V38.9445Z" fill="#786CAC"/>
<path d="M139.304 38.9445C139.304 40.4379 138.77 41.7179 137.704 42.7845C136.637 43.8512 135.357 44.3845 133.864 44.3845C132.328 44.3845 131.026 43.8512 129.96 42.7845C128.936 41.7179 128.424 40.4379 128.424 38.9445V28.1285C128.424 26.6352 127.89 25.3765 126.824 24.3525C125.757 23.2859 124.498 22.7525 123.048 22.7525C121.554 22.7525 120.296 23.2859 119.272 24.3525C118.248 25.3765 117.736 26.6352 117.736 28.1285V38.8805C117.736 40.3739 117.181 41.6752 116.072 42.7845C115.005 43.8512 113.725 44.3845 112.232 44.3845C110.696 44.3845 109.394 43.8512 108.328 42.7845C107.304 41.7179 106.792 40.4379 106.792 38.9445V28.1285C106.792 26.6352 106.258 25.3765 105.192 24.3525C104.168 23.2859 102.93 22.7525 101.48 22.7525C99.9862 22.7525 98.7062 23.2859 97.6395 24.3525C96.6155 25.3765 96.1035 26.6352 96.1035 28.1285V38.8805C96.1035 40.3739 95.5702 41.6539 94.5035 42.7205C93.4368 43.7872 92.1568 44.3205 90.6635 44.3205C89.1275 44.3205 87.8262 43.7872 86.7595 42.7205C85.7355 41.6539 85.2235 40.3739 85.2235 38.8805V28.1285C85.2235 23.6485 86.8022 19.8299 89.9595 16.6725C93.1595 13.4725 96.9995 11.8725 101.48 11.8725C105.576 11.8725 109.181 13.2592 112.296 16.0325C115.325 13.2592 118.909 11.8725 123.048 11.8725C127.528 11.8725 131.346 13.4725 134.504 16.6725C137.704 19.8299 139.304 23.6485 139.304 28.1285V38.9445Z" fill="#E27A3B"/>
<path d="M174.478 28.1285C174.478 32.6085 172.899 36.4485 169.742 39.6485C166.585 42.8059 162.766 44.3845 158.286 44.3845C153.806 44.3845 149.966 42.8059 146.766 39.6485C143.609 36.4485 142.03 32.6085 142.03 28.1285C142.03 23.6485 143.609 19.8299 146.766 16.6725C149.966 13.5152 153.806 11.9365 158.286 11.9365C162.766 11.9365 166.585 13.5152 169.742 16.6725C172.899 19.8299 174.478 23.6485 174.478 28.1285ZM163.598 28.1285C163.598 26.6352 163.086 25.3765 162.062 24.3525C161.038 23.3285 159.779 22.8165 158.286 22.8165C156.793 22.8165 155.513 23.3499 154.446 24.4165C153.422 25.4405 152.91 26.6779 152.91 28.1285C152.91 29.5792 153.443 30.8379 154.51 31.9045C155.577 32.9712 156.835 33.5045 158.286 33.5045C159.737 33.5045 160.974 32.9925 161.998 31.9685C163.065 30.9019 163.598 29.6219 163.598 28.1285Z" fill="#F3BF38"/>
<path d="M206.278 17.3125C206.278 18.8059 205.745 20.0859 204.678 21.1525C203.611 22.2192 202.331 22.7525 200.838 22.7525H192.838C191.345 22.7525 190.065 23.2859 188.998 24.3525C187.974 25.3765 187.462 26.6352 187.462 28.1285V38.9445C187.462 40.4379 186.929 41.7179 185.862 42.7845C184.795 43.8512 183.515 44.3845 182.022 44.3845C180.486 44.3845 179.185 43.8512 178.118 42.7845C177.094 41.7179 176.582 40.4379 176.582 38.9445V28.1285C176.582 23.6485 178.161 19.8299 181.318 16.6725C184.518 13.4725 188.358 11.8725 192.838 11.8725H200.838C202.331 11.8725 203.611 12.4059 204.678 13.4725C205.745 14.5392 206.278 15.8192 206.278 17.3125Z" fill="#90C7D9"/>
<path d="M240.919 38.9445C240.919 40.4379 240.385 41.7179 239.319 42.7845C238.252 43.8512 236.972 44.3845 235.479 44.3845H224.791C220.311 44.3845 216.471 42.8059 213.271 39.6485C210.113 36.4485 208.535 32.6085 208.535 28.1285C208.535 23.6485 210.113 19.8299 213.271 16.6725C216.471 13.4725 220.311 11.8725 224.791 11.8725C228.588 11.8725 231.937 13.0459 234.839 15.3925C237.783 17.7392 239.703 20.7685 240.599 24.4805C240.684 24.7365 240.727 25.1419 240.727 25.6965C240.727 27.1899 240.193 28.4699 239.127 29.5365C238.06 30.6032 236.78 31.1365 235.287 31.1365C232.556 31.1365 230.764 29.7499 229.911 26.9765C229.1 24.2032 227.393 22.8165 224.791 22.8165C223.297 22.8165 222.017 23.3499 220.951 24.4165C219.927 25.4405 219.415 26.6779 219.415 28.1285C219.415 29.5792 219.927 30.8379 220.951 31.9045C222.017 32.9712 223.297 33.5045 224.791 33.5045H235.479C236.972 33.5045 238.252 34.0379 239.319 35.1045C240.385 36.1712 240.919 37.4512 240.919 38.9445Z" fill="#D33030"/>
</svg>
