<svg width="191" height="137" viewBox="0 0 191 137" fill="none" xmlns="http://www.w3.org/2000/svg">
<path d="M8.53424 48.575H106.287V136.384H8.53424V94.0521V48.575Z" fill="#F8CB97"/>
<path d="M106.287 48.575L177.857 1.13125V42.4037V81.9197L106.287 136.384V48.575Z" fill="#D8B68E"/>
<path d="M106.287 75.0154L177.432 30.3823V45.3568V61.1633L134.968 88.0284L106.287 109.829V75.0154Z" fill="#D6BC9E"/>
<path d="M106.711 48.7102H9.56012L103.176 1.56055H177.122L106.711 48.7102Z" fill="#C5A17E"/>
<g filter="url(#filter0_d_4_148)">
<path fill-rule="evenodd" clip-rule="evenodd" d="M175.029 3.55688L106.695 49.113L119.624 55.8006L175.029 16.859V3.55688Z" fill="#F8CB97"/>
</g>
<path d="M119.624 55.8006L106.33 48.9301L177.904 1.30127L190.875 5.48992L119.624 55.8006Z" fill="#F8CB97"/>
<path d="M0.125061 59.1217L9.87164 48.9109V59.1217H0.125061Z" fill="#D8B68E"/>
<path fill-rule="evenodd" clip-rule="evenodd" d="M54.3493 75.2209C56.0636 80.8536 55.0011 86.1661 51.9762 87.0867C48.9513 88.0074 45.1095 84.1874 43.3952 78.5547C41.6809 72.922 42.7434 67.6095 45.7683 66.6889C48.7932 65.7683 52.6351 69.5882 54.3493 75.2209ZM40.946 84.5668C44.0128 88.8077 44.8158 93.4629 42.7395 94.9643C40.6632 96.4657 36.4939 94.2449 33.4271 90.004C30.3603 85.763 29.5573 81.1079 31.6336 79.6064C33.7099 78.105 37.8792 80.3258 40.946 84.5668ZM58.9409 112.725C53.3777 118.158 46.3817 120.046 42.1502 116.848C37.2123 113.117 37.909 103.873 43.7063 96.2013C48.0851 90.4069 54.1214 87.167 58.9409 87.5364C63.7605 87.167 69.7968 90.4069 74.1756 96.2013C79.9728 103.873 80.6695 113.117 75.7317 116.848C71.5002 120.046 64.5042 118.158 58.9409 112.725ZM74.9567 94.9643C72.8804 93.4629 73.6833 88.8077 76.7501 84.5668C79.8169 80.3258 83.9862 78.105 86.0625 79.6064C88.1388 81.1079 87.3358 85.763 84.269 90.004C81.2022 94.2449 77.0329 96.4657 74.9567 94.9643ZM65.7204 87.0867C62.6955 86.1661 61.633 80.8536 63.3473 75.2209C65.0615 69.5882 68.9034 65.7683 71.9283 66.6889C74.9532 67.6095 76.0157 72.922 74.3014 78.5547C72.5871 84.1874 68.7453 88.0074 65.7204 87.0867Z" fill="#404040"/>
<path d="M103.297 48.6104L103.854 1.51147H177.432L107.568 48.6104H103.297Z" fill="#AC8D6E"/>
<path d="M49.1487 48.6262H69.8028V62.8873H49.1487V48.6262Z" fill="#DEB079"/>
<path d="M49.1487 121.626H69.8028V135.887H49.1487V121.626Z" fill="#DEB079"/>
<rect width="58.7783" height="30.0872" transform="matrix(0.83205 -0.5547 0 1 120.274 67.8105)" fill="#1D1D1D" fill-opacity="0.3"/>
<path d="M138.471 60.9233V59.8663L134.161 62.7397V67.6397L135.209 66.9408V65.4078L138.122 63.4663V62.4023L135.209 64.3438V63.0978L138.471 60.9233ZM141.637 58.4628C140.996 58.8899 140.39 59.5107 139.878 60.4054V59.7054L138.882 60.3694V64.4924L139.878 63.8284V61.3574C140.484 60.3866 141.124 59.8055 141.683 59.4327C141.975 59.2386 142.237 59.1059 142.563 58.9864V57.9854C142.33 58.0707 142.045 58.191 141.637 58.4628ZM146.176 53.5466L143.91 55.617V56.443L146.176 54.3726V53.5466ZM145.005 56.217C144.289 56.6946 143.602 57.3068 142.903 58.0458L143.258 58.6839C143.963 57.9621 144.51 57.5481 144.959 57.2491C145.425 56.9385 146.264 56.4423 146.264 57.2263C145.815 57.3433 145.273 57.5924 144.685 57.9846C143.596 58.7107 142.617 59.699 142.617 60.77C142.617 61.701 143.217 61.6721 144.178 61.0314C144.988 60.4917 145.658 59.8212 146.264 59.0603V59.5713L147.265 58.9035V56.8245C147.254 55.2712 146.438 55.2619 145.005 56.217ZM146.264 58.2903C145.751 58.898 145.005 59.598 144.464 59.9592C143.945 60.3047 143.613 60.4911 143.613 60.0571C143.613 59.6371 144.062 59.1841 144.807 58.6871C145.442 58.2638 145.914 58.0683 146.264 57.9683V58.2903ZM151.368 52.0454V52.7104C151.024 52.4775 150.448 52.5889 149.632 53.1325C148.456 53.9168 147.617 55.092 147.617 56.548C147.617 58.004 148.456 58.0608 149.632 57.2765C150.442 56.7368 151.019 56.0793 151.368 55.3844C151.327 56.4686 150.943 57.2008 149.912 57.8881C149.155 58.3929 148.386 58.7024 147.984 58.8793V59.8453C148.316 59.729 149.137 59.4055 150.133 58.7415C151.432 57.8757 152.37 56.5225 152.37 54.8425V51.3775L151.368 52.0454ZM149.993 56.0347C149.056 56.6599 148.613 56.64 148.613 55.884C148.613 55.128 149.056 54.5179 149.993 53.8927C150.931 53.2676 151.368 53.2914 151.368 54.0474C151.368 54.8034 150.931 55.4096 149.993 56.0347ZM152.834 49.5909V50.6339L153.83 49.9699V48.9269L152.834 49.5909ZM152.834 51.0679V55.1909L153.83 54.5269V50.4039L152.834 51.0679ZM154.296 48.6164V54.2164L155.292 53.5524V47.9524L154.296 48.6164Z" fill="#D8B68E"/>
<g clip-path="url(#clip0_4_148)">
<rect width="14" height="14" transform="matrix(0.83205 -0.5547 0 1 123.094 80.0178)" fill="#D8B68E"/>
<path fill-rule="evenodd" clip-rule="evenodd" d="M124.536 85.7527L126.938 79.1514L128.918 81.9532L130.898 76.5113L133.3 79.91L131.315 81.2339V84.6357L130.482 85.1904V81.7886L129.34 82.5501L128.497 83.1126L127.354 83.8741V87.2758L126.522 87.8305V84.4288L124.536 85.7527ZM125.349 90.3178L132.269 85.7046V84.7046L125.349 89.3178V90.3178Z" fill="black"/>
</g>
<g clip-path="url(#clip1_4_148)">
<rect width="15" height="14" transform="matrix(0.83205 -0.5547 0 1 138.071 70.0332)" fill="#D8B68E"/>
<path fill-rule="evenodd" clip-rule="evenodd" d="M144.817 69.2525L145.077 68.7852L141.999 70.8372V70.8372C141.999 72.7093 142.816 73.7211 143.895 73.3252V75.7281L142.273 76.8095V77.8095L146.349 75.0919V74.0919L144.727 75.1734V72.7705C145.806 71.7283 146.624 69.626 146.624 67.7538V67.7538L145.683 68.3808L145.484 68.74L145.92 68.4487L145.575 69.1037L144.906 70.3725L144.608 70.2214L144.932 69.6076L144.435 69.9387L144.817 69.2525Z" fill="black"/>
</g>
<g clip-path="url(#clip2_4_148)">
<rect width="15" height="14" transform="matrix(0.83205 -0.5547 0 1 153.88 59.4939)" fill="#D8B68E"/>
<path fill-rule="evenodd" clip-rule="evenodd" d="M154.111 61.5862V60.72L155.775 59.6106V60.4768L154.111 61.5862ZM159.56 63.3438L156.79 65.1904C156.79 63.3461 158.216 60.9001 159.976 59.7271C161.735 58.554 163.162 59.0983 163.162 60.9426L160.392 62.7891V66.7642C160.392 67.3208 160.017 68.0223 159.553 68.3311C159.09 68.6398 158.715 68.4389 158.715 67.8823L158.715 67.2806L159.547 66.726L159.547 67.3276L159.547 67.3292L159.547 67.3302L159.547 67.3303C159.547 67.3307 159.548 67.3314 159.549 67.3319L159.55 67.3323L159.551 67.3323L159.551 67.3323C159.551 67.3322 159.552 67.3322 159.553 67.3311C159.554 67.3304 159.555 67.3299 159.555 67.3295L159.556 67.3291L159.557 67.3279L159.558 67.3257C159.559 67.324 159.559 67.3227 159.56 67.322L159.56 67.322C159.56 67.3217 159.56 67.3208 159.56 67.3189V63.3438ZM154.509 62.1297V62.9959L156.173 61.8865V61.0203L154.509 62.1297ZM156.102 60.2588V59.3925L157.766 58.2831V59.1494L156.102 60.2588ZM156.501 60.8022V61.6684L158.165 60.559V59.6928L156.501 60.8022ZM158.094 58.9313V58.065L159.758 56.9556V57.8219L158.094 58.9313ZM158.492 59.4747V60.341L160.156 59.2316V58.3653L158.492 59.4747ZM160.085 57.6039V56.7377L161.749 55.6283V56.4945L160.085 57.6039ZM160.483 58.1473V59.0136L162.147 57.9042V57.0379L160.483 58.1473ZM162.076 56.2764V55.4102L163.74 54.3008V55.167L162.076 56.2764ZM162.474 56.8199V57.6861L164.138 56.5767V55.7105L162.474 56.8199ZM164.067 54.949V54.0827L165.731 52.9733V53.8396L164.067 54.949ZM164.465 55.4924V56.3587L166.129 55.2493V54.383L164.465 55.4924Z" fill="black"/>
</g>
<defs>
<filter id="filter0_d_4_148" x="100.695" y="0.556885" width="80.3342" height="64.2437" filterUnits="userSpaceOnUse" color-interpolation-filters="sRGB">
<feFlood flood-opacity="0" result="BackgroundImageFix"/>
<feColorMatrix in="SourceAlpha" type="matrix" values="0 0 0 0 0 0 0 0 0 0 0 0 0 0 0 0 0 0 127 0" result="hardAlpha"/>
<feOffset dy="3"/>
<feGaussianBlur stdDeviation="3"/>
<feComposite in2="hardAlpha" operator="out"/>
<feColorMatrix type="matrix" values="0 0 0 0 0.670833 0 0 0 0 0.548942 0 0 0 0 0.40809 0 0 0 1 0"/>
<feBlend mode="normal" in2="BackgroundImageFix" result="effect1_dropShadow_4_148"/>
<feBlend mode="normal" in="SourceGraphic" in2="effect1_dropShadow_4_148" result="shape"/>
</filter>
<clipPath id="clip0_4_148">
<rect width="14" height="14" fill="white" transform="matrix(0.83205 -0.5547 0 1 123.094 80.0178)"/>
</clipPath>
<clipPath id="clip1_4_148">
<rect width="15" height="14" fill="white" transform="matrix(0.83205 -0.5547 0 1 138.071 70.0332)"/>
</clipPath>
<clipPath id="clip2_4_148">
<rect width="15" height="14" fill="white" transform="matrix(0.83205 -0.5547 0 1 153.88 59.4939)"/>
</clipPath>
</defs>
</svg>
