<svg width="200" height="166" viewBox="0 0 200 166" fill="none" xmlns="http://www.w3.org/2000/svg">
<path d="M15 63.575H112.752V151.384H15V109.052V63.575Z" fill="#F8CB97"/>
<path d="M112.752 63.575L184.323 16.1312V57.4037V96.9197L112.752 151.384V63.575Z" fill="#D8B68E"/>
<path d="M112.752 90.0154L183.897 45.3823V60.3568V76.1633L141.434 103.028L112.752 124.829V90.0154Z" fill="#D6BC9E"/>
<path d="M113.177 63.7102H16.0259L109.642 16.5605H183.587L113.177 63.7102Z" fill="#C5A17E"/>
<path fillRule="evenodd" clipRule="evenodd" d="M60.8151 90.2209C62.5294 95.8536 61.4669 101.166 58.442 102.087C55.4171 103.007 51.5752 99.1874 49.8609 93.5547C48.1467 87.922 49.2092 82.6095 52.2341 81.6889C55.259 80.7683 59.1008 84.5882 60.8151 90.2209ZM47.4118 99.5668C50.4786 103.808 51.2816 108.463 49.2053 109.964C47.129 111.466 42.9597 109.245 39.8929 105.004C36.8261 100.763 36.0231 96.1079 38.0994 94.6064C40.1757 93.105 44.345 95.3258 47.4118 99.5668ZM65.4067 127.725C59.8434 133.158 52.8474 135.046 48.616 131.848C43.6781 128.117 44.3748 118.873 50.172 111.201C54.5508 105.407 60.5871 102.167 65.4067 102.536C70.2263 102.167 76.2626 105.407 80.6413 111.201C86.4386 118.873 87.1353 128.117 82.1974 131.848C77.966 135.046 70.97 133.158 65.4067 127.725ZM81.4224 109.964C79.3461 108.463 80.1491 103.808 83.2159 99.5668C86.2827 95.3258 90.452 93.105 92.5283 94.6064C94.6046 96.1079 93.8016 100.763 90.7348 105.004C87.668 109.245 83.4987 111.466 81.4224 109.964ZM72.1861 102.087C69.1612 101.166 68.0988 95.8536 69.813 90.2209C71.5273 84.5882 75.3692 80.7683 78.3941 81.6889C81.419 82.6095 82.4814 87.922 80.7672 93.5547C79.0529 99.1874 75.211 103.007 72.1861 102.087Z" fill="#404040"/>
<path d="M109.763 63.6104L110.319 16.5115H183.898L114.034 63.6104H109.763Z" fill="#AC8D6E"/>
<path d="M55.6145 63.6262H76.2686V77.8873H55.6145V63.6262Z" fill="#DEB079"/>
<path d="M55.6145 136.626H76.2686V150.887H55.6145V136.626Z" fill="#DEB079"/>
<rect width="58.7783" height="30.0872" transform="matrix(0.83205 -0.5547 0 1 126.74 82.8105)" fill="#1D1D1D" fill-opacity="0.3"/>
<path d="M144.937 75.9233V74.8663L140.627 77.7397V82.6397L141.675 81.9408V80.4078L144.587 78.4663V77.4023L141.675 79.3438V78.0978L144.937 75.9233ZM148.102 73.4628C147.462 73.8899 146.856 74.5107 146.344 75.4054V74.7054L145.348 75.3694V79.4924L146.344 78.8284V76.3574C146.949 75.3866 147.59 74.8055 148.149 74.4327C148.44 74.2386 148.702 74.1059 149.029 73.9864V72.9854C148.796 73.0707 148.51 73.191 148.102 73.4628ZM152.642 68.5466L150.376 70.617V71.443L152.642 69.3726V68.5466ZM151.471 71.217C150.755 71.6946 150.067 72.3068 149.369 73.0458L149.724 73.6839C150.429 72.9621 150.976 72.5481 151.425 72.2491C151.89 71.9385 152.729 71.4423 152.729 72.2263C152.281 72.3433 151.739 72.5924 151.151 72.9846C150.062 73.7107 149.083 74.699 149.083 75.77C149.083 76.701 149.683 76.6721 150.644 76.0314C151.454 75.4917 152.123 74.8212 152.729 74.0603V74.5713L153.731 73.9035V71.8245C153.719 70.2712 152.904 70.2619 151.471 71.217ZM152.729 73.2903C152.217 73.898 151.471 74.598 150.929 74.9592C150.411 75.3047 150.079 75.4911 150.079 75.0571C150.079 74.6371 150.528 74.1841 151.273 73.6871C151.908 73.2638 152.38 73.0683 152.729 72.9683V73.2903ZM157.834 67.0454V67.7104C157.49 67.4775 156.913 67.5889 156.098 68.1325C154.921 68.9168 154.083 70.092 154.083 71.548C154.083 73.004 154.921 73.0608 156.098 72.2765C156.908 71.7368 157.484 71.0793 157.834 70.3844C157.793 71.4686 157.408 72.2008 156.378 72.8881C155.62 73.3929 154.852 73.7024 154.45 73.8793V74.8453C154.782 74.729 155.603 74.4055 156.599 73.7415C157.898 72.8757 158.835 71.5225 158.835 69.8425V66.3775L157.834 67.0454ZM156.459 71.0347C155.521 71.6599 155.079 71.64 155.079 70.884C155.079 70.128 155.521 69.5179 156.459 68.8927C157.397 68.2676 157.834 68.2914 157.834 69.0474C157.834 69.8034 157.397 70.4096 156.459 71.0347ZM159.3 64.5909V65.6339L160.296 64.9699V63.9269L159.3 64.5909ZM159.3 66.0679V70.1909L160.296 69.5269V65.4039L159.3 66.0679ZM160.762 63.6164V69.2164L161.758 68.5524V62.9524L160.762 63.6164Z" fill="#D8B68E"/>
<g clip-path="url(#clip0_423_418)">
<rect width="14" height="14" transform="matrix(0.83205 -0.5547 0 1 129.56 95.0178)" fill="#D8B68E"/>
<path fillRule="evenodd" clipRule="evenodd" d="M131.002 100.753L133.404 94.1514L135.384 96.9532L137.364 91.5113L139.766 94.91L137.78 96.2339V99.6357L136.948 100.19V96.7886L135.806 97.5501L134.962 98.1126L133.82 98.8741V102.276L132.988 102.831V99.4288L131.002 100.753ZM131.815 105.318L138.735 100.705V99.7046L131.815 104.318V105.318Z" fill="black"/>
</g>
<g clip-path="url(#clip1_423_418)">
<rect width="15" height="14" transform="matrix(0.83205 -0.5547 0 1 144.536 85.0332)" fill="#D8B68E"/>
<path fillRule="evenodd" clipRule="evenodd" d="M151.282 84.2525L151.542 83.7852L148.464 85.8372V85.8372C148.464 87.7093 149.282 88.7211 150.361 88.3252V90.7281L148.738 91.8095V92.8095L152.815 90.0919V89.0919L151.193 90.1734V87.7705C152.271 86.7283 153.089 84.626 153.089 82.7538V82.7538L152.149 83.3808L151.949 83.74L152.386 83.4487L152.041 84.1037L151.372 85.3725L151.074 85.2214L151.398 84.6076L150.901 84.9387L151.282 84.2525Z" fill="black"/>
</g>
<g clip-path="url(#clip2_423_418)">
<rect width="15" height="14" transform="matrix(0.83205 -0.5547 0 1 160.345 74.4939)" fill="#D8B68E"/>
<path fillRule="evenodd" clipRule="evenodd" d="M160.577 76.5862V75.72L162.241 74.6106V75.4768L160.577 76.5862ZM166.026 78.3438L163.256 80.1904C163.256 78.3461 164.682 75.9001 166.442 74.7271C168.201 73.554 169.628 74.0983 169.628 75.9426L166.858 77.7891V81.7642C166.858 82.3208 166.482 83.0223 166.019 83.3311C165.556 83.6398 165.181 83.4389 165.181 82.8823L165.181 82.2806L166.013 81.726L166.013 82.3276L166.013 82.3292L166.013 82.3302L166.013 82.3303C166.013 82.3307 166.014 82.3314 166.015 82.3319L166.016 82.3323L166.017 82.3323L166.017 82.3323C166.017 82.3322 166.018 82.3322 166.019 82.3311C166.02 82.3304 166.021 82.3299 166.021 82.3295L166.022 82.3291L166.023 82.3279L166.024 82.3257C166.025 82.324 166.025 82.3227 166.025 82.322L166.025 82.322C166.026 82.3217 166.026 82.3208 166.026 82.3189V78.3438ZM160.975 77.1297V77.9959L162.639 76.8865V76.0203L160.975 77.1297ZM162.568 75.2588V74.3925L164.232 73.2831V74.1494L162.568 75.2588ZM162.966 75.8022V76.6684L164.63 75.559V74.6928L162.966 75.8022ZM164.559 73.9313V73.065L166.223 71.9556V72.8219L164.559 73.9313ZM164.958 74.4747V75.341L166.622 74.2316V73.3653L164.958 74.4747ZM166.55 72.6039V71.7377L168.214 70.6283V71.4945L166.55 72.6039ZM166.949 73.1473V74.0136L168.613 72.9042V72.0379L166.949 73.1473ZM168.542 71.2764V70.4102L170.206 69.3008V70.167L168.542 71.2764ZM168.94 71.8199V72.6861L170.604 71.5767V70.7105L168.94 71.8199ZM170.533 69.949V69.0827L172.197 67.9733V68.8396L170.533 69.949ZM170.931 70.4924V71.3587L172.595 70.2493V69.383L170.931 70.4924Z" fill="black"/>
</g>
<path d="M136.762 16.4006H184.538L113.688 63.0908H69.1694H16.5073L109.073 16.4006H136.762Z" fill="#D8B68E"/>
<path d="M69.1694 63.0908L136.762 16.4006M69.1694 63.0908H113.688L184.538 16.4006H136.762M69.1694 63.0908H16.5073L109.073 16.4006H136.762" stroke="#DEB079" stroke-width="0.2"/>
<path d="M15 74.7744H112.752V162.584H15V120.252V74.7744Z" fill="#F8CB97"/>
<path d="M112.752 74.7744L184.323 27.3307V68.6032V108.119L112.752 162.584V74.7744Z" fill="#D8B68E"/>
<path d="M112.752 101.215L183.897 56.5818V71.5563V87.3627L141.434 114.228L112.752 136.029V101.215Z" fill="#D6BC9E"/>
<path d="M113.177 74.9097H16.0259L109.642 27.76H183.587L113.177 74.9097Z" fill="#C5A17E"/>
<path fillRule="evenodd" clipRule="evenodd" d="M60.8151 101.42C62.5294 107.053 61.4669 112.365 58.442 113.286C55.4171 114.207 51.5752 110.387 49.8609 104.754C48.1467 99.1212 49.2092 93.8087 52.2341 92.8881C55.259 91.9675 59.1008 95.7874 60.8151 101.42ZM47.4118 110.766C50.4786 115.007 51.2816 119.662 49.2053 121.164C47.129 122.665 42.9597 120.444 39.8929 116.203C36.8261 111.962 36.0231 107.307 38.0994 105.806C40.1757 104.304 44.345 106.525 47.4118 110.766ZM65.4067 138.924C59.8434 144.357 52.8474 146.245 48.616 143.047C43.6781 139.316 44.3748 130.072 50.172 122.401C54.5508 116.606 60.5871 113.366 65.4067 113.736C70.2263 113.366 76.2626 116.606 80.6413 122.401C86.4386 130.072 87.1353 139.316 82.1974 143.047C77.966 146.245 70.97 144.357 65.4067 138.924ZM81.4224 121.164C79.3461 119.662 80.1491 115.007 83.2159 110.766C86.2827 106.525 90.452 104.304 92.5283 105.806C94.6046 107.307 93.8016 111.962 90.7348 116.203C87.668 120.444 83.4987 122.665 81.4224 121.164ZM72.1861 113.286C69.1612 112.365 68.0988 107.053 69.813 101.42C71.5273 95.7874 75.3692 91.9675 78.3941 92.8881C81.419 93.8087 82.4814 99.1212 80.7672 104.754C79.0529 110.387 75.211 114.207 72.1861 113.286Z" fill="#404040"/>
<path d="M109.763 74.8096L110.319 27.7107H183.898L114.034 74.8096H109.763Z" fill="#AC8D6E"/>
<path d="M55.6145 74.8257H76.2686V89.0867H55.6145V74.8257Z" fill="#DEB079"/>
<path d="M55.6145 147.826H76.2686V162.087H55.6145V147.826Z" fill="#DEB079"/>
<rect width="58.7783" height="30.0872" transform="matrix(0.83205 -0.5547 0 1 126.74 94.0098)" fill="#1D1D1D" fill-opacity="0.3"/>
<path d="M144.937 87.1225V86.0655L140.627 88.9389V93.8389L141.675 93.14V91.607L144.587 89.6655V88.6015L141.675 90.543V89.297L144.937 87.1225ZM148.102 84.662C147.462 85.0891 146.856 85.7099 146.344 86.6046V85.9046L145.348 86.5686V90.6916L146.344 90.0276V87.5566C146.949 86.5858 147.59 86.0047 148.149 85.6319C148.44 85.4378 148.702 85.3051 149.029 85.1856V84.1846C148.796 84.2699 148.51 84.3902 148.102 84.662ZM152.642 79.7458L150.376 81.8163V82.6423L152.642 80.5718V79.7458ZM151.471 82.4163C150.755 82.8939 150.067 83.506 149.369 84.245L149.724 84.8831C150.429 84.1613 150.976 83.7473 151.425 83.4483C151.89 83.1377 152.729 82.6416 152.729 83.4256C152.281 83.5425 151.739 83.7917 151.151 84.1838C150.062 84.9099 149.083 85.8983 149.083 86.9693C149.083 87.9003 149.683 87.8713 150.644 87.2306C151.454 86.6909 152.123 86.0204 152.729 85.2596V85.7706L153.731 85.1027V83.0237C153.719 81.4705 152.904 81.4611 151.471 82.4163ZM152.729 84.4896C152.217 85.0973 151.471 85.7973 150.929 86.1584C150.411 86.504 150.079 86.6903 150.079 86.2563C150.079 85.8363 150.528 85.3833 151.273 84.8863C151.908 84.463 152.38 84.2675 152.729 84.1676V84.4896ZM157.834 78.2446V78.9096C157.49 78.6767 156.913 78.7881 156.098 79.3317C154.921 80.116 154.083 81.2912 154.083 82.7472C154.083 84.2032 154.921 84.26 156.098 83.4757C156.908 82.936 157.484 82.2786 157.834 81.5836C157.793 82.6678 157.408 83.4 156.378 84.0873C155.62 84.5921 154.852 84.9016 154.45 85.0786V86.0446C154.782 85.9282 155.603 85.6047 156.599 84.9408C157.898 84.0749 158.835 82.7217 158.835 81.0417V77.5767L157.834 78.2446ZM156.459 82.234C155.521 82.8591 155.079 82.8392 155.079 82.0832C155.079 81.3272 155.521 80.7171 156.459 80.092C157.397 79.4668 157.834 79.4906 157.834 80.2466C157.834 81.0026 157.397 81.6088 156.459 82.234ZM159.3 75.7901V76.8331L160.296 76.1691V75.1261L159.3 75.7901ZM159.3 77.2671V81.3901L160.296 80.7261V76.6031L159.3 77.2671ZM160.762 74.8156V80.4156L161.758 79.7516V74.1516L160.762 74.8156Z" fill="#D8B68E"/>
<g clip-path="url(#clip3_423_418)">
<rect width="14" height="14" transform="matrix(0.83205 -0.5547 0 1 129.56 106.217)" fill="#D8B68E"/>
<path fillRule="evenodd" clipRule="evenodd" d="M131.002 111.952L133.404 105.351L135.384 108.152L137.364 102.711L139.766 106.109L137.78 107.433V110.835L136.948 111.39V107.988L135.806 108.749L134.962 109.312L133.82 110.073V113.475L132.988 114.03V110.628L131.002 111.952ZM131.815 116.517L138.735 111.904V110.904L131.815 115.517V116.517Z" fill="black"/>
</g>
<g clip-path="url(#clip4_423_418)">
<rect width="15" height="14" transform="matrix(0.83205 -0.5547 0 1 144.536 96.2324)" fill="#D8B68E"/>
<path fillRule="evenodd" clipRule="evenodd" d="M151.282 95.4517L151.542 94.9844L148.464 97.0364V97.0364C148.464 98.9085 149.282 99.9203 150.361 99.5244V101.927L148.738 103.009V104.009L152.815 101.291V100.291L151.193 101.373V98.9698C152.271 97.9275 153.089 95.8252 153.089 93.953V93.953L152.149 94.58L151.949 94.9392L152.386 94.648L152.041 95.3029L151.372 96.5717L151.074 96.4206L151.398 95.8068L150.901 96.1379L151.282 95.4517Z" fill="black"/>
</g>
<g clip-path="url(#clip5_423_418)">
<rect width="15" height="14" transform="matrix(0.83205 -0.5547 0 1 160.345 85.6931)" fill="#D8B68E"/>
<path fillRule="evenodd" clipRule="evenodd" d="M160.577 87.7855V86.9192L162.241 85.8098V86.6761L160.577 87.7855ZM166.026 89.543L163.256 91.3897C163.256 89.5453 164.682 87.0993 166.442 85.9263C168.201 84.7533 169.628 85.2975 169.628 87.1418L166.858 88.9883V92.9634C166.858 93.52 166.482 94.2216 166.019 94.5303C165.556 94.8391 165.181 94.6381 165.181 94.0815L165.181 93.4799L166.013 92.9252L166.013 93.5268L166.013 93.5284L166.013 93.5295L166.013 93.5295C166.013 93.5299 166.014 93.5306 166.015 93.5311L166.016 93.5315L166.017 93.5315L166.017 93.5315C166.017 93.5315 166.018 93.5314 166.019 93.5303C166.02 93.5296 166.021 93.5291 166.021 93.5288L166.022 93.5283L166.023 93.5271L166.024 93.5249C166.025 93.5233 166.025 93.522 166.025 93.5212L166.025 93.5212C166.026 93.5209 166.026 93.5201 166.026 93.5181V89.543ZM160.975 88.3289V89.1951L162.639 88.0857V87.2195L160.975 88.3289ZM162.568 86.458V85.5917L164.232 84.4823V85.3486L162.568 86.458ZM162.966 87.0014V87.8677L164.63 86.7583V85.892L162.966 87.0014ZM164.559 85.1305V84.2642L166.223 83.1548V84.0211L164.559 85.1305ZM164.958 85.6739V86.5402L166.622 85.4308V84.5645L164.958 85.6739ZM166.55 83.8031V82.9369L168.214 81.8275V82.6937L166.55 83.8031ZM166.949 84.3466V85.2128L168.613 84.1034V83.2372L166.949 84.3466ZM168.542 82.4757V81.6094L170.206 80.5V81.3663L168.542 82.4757ZM168.94 83.0191V83.8853L170.604 82.7759V81.9097L168.94 83.0191ZM170.533 81.1482V80.2819L172.197 79.1725V80.0388L170.533 81.1482ZM170.931 81.6916V82.5579L172.595 81.4485V80.5822L170.931 81.6916Z" fill="black"/>
</g>
<path d="M88.7418 64.6936L113.27 74.9664L184.172 27.3908L165.53 20.8792L88.7418 64.6936Z" fill="#D8B68E"/>
<path d="M61.1883 64.6937L15 76.2341L110.281 27.8301L143.2 18.5245L61.1883 64.6937Z" fill="#D8B68E"/>
<path d="M15 77.4331H112.752V165.243H15V122.91V77.4331Z" fill="#F8CB97"/>
<path d="M112.752 77.4331L184.323 29.9894V71.2619V110.778L112.752 165.243V77.4331Z" fill="#D8B68E"/>
<path d="M112.752 103.874L183.897 59.2405V74.215V90.0214L141.434 116.887L112.752 138.688V103.874Z" fill="#D6BC9E"/>
<path d="M113.177 77.5684H16.0259L109.642 30.4187H183.587L113.177 77.5684Z" fill="#C5A17E"/>
<path fillRule="evenodd" clipRule="evenodd" d="M60.8151 104.079C62.5294 109.712 61.4669 115.024 58.442 115.945C55.4171 116.865 51.5752 113.045 49.8609 107.413C48.1467 101.78 49.2092 96.4674 52.2341 95.5468C55.259 94.6262 59.1008 98.4461 60.8151 104.079ZM47.4118 113.425C50.4786 117.666 51.2816 122.321 49.2053 123.822C47.129 125.324 42.9597 123.103 39.8929 118.862C36.8261 114.621 36.0231 109.966 38.0994 108.464C40.1757 106.963 44.345 109.184 47.4118 113.425ZM65.4067 141.583C59.8434 147.016 52.8474 148.904 48.616 145.706C43.6781 141.975 44.3748 132.731 50.172 125.059C54.5508 119.265 60.5871 116.025 65.4067 116.394C70.2263 116.025 76.2626 119.265 80.6413 125.059C86.4386 132.731 87.1353 141.975 82.1974 145.706C77.966 148.904 70.97 147.016 65.4067 141.583ZM81.4224 123.822C79.3461 122.321 80.1491 117.666 83.2159 113.425C86.2827 109.184 90.452 106.963 92.5283 108.464C94.6046 109.966 93.8016 114.621 90.7348 118.862C87.668 123.103 83.4987 125.324 81.4224 123.822ZM72.1861 115.945C69.1612 115.024 68.0988 109.712 69.813 104.079C71.5273 98.4461 75.3692 94.6262 78.3941 95.5468C81.419 96.4674 82.4814 101.78 80.7672 107.413C79.0529 113.045 75.211 116.865 72.1861 115.945Z" fill="#404040"/>
<path d="M109.763 77.4683L110.319 30.3694H183.898L114.034 77.4683H109.763Z" fill="#AC8D6E"/>
<path d="M55.6145 77.4844H76.2686V91.7454H55.6145V77.4844Z" fill="#DEB079"/>
<path d="M55.6145 150.484H76.2686V164.745H55.6145V150.484Z" fill="#DEB079"/>
<rect width="58.7783" height="30.0872" transform="matrix(0.83205 -0.5547 0 1 126.74 96.6685)" fill="#1D1D1D" fill-opacity="0.3"/>
<path d="M144.937 89.7812V88.7242L140.627 91.5976V96.4976L141.675 95.7987V94.2657L144.587 92.3242V91.2602L141.675 93.2017V91.9557L144.937 89.7812ZM148.102 87.3207C147.462 87.7478 146.856 88.3686 146.344 89.2633V88.5633L145.348 89.2273V93.3503L146.344 92.6863V90.2153C146.949 89.2445 147.59 88.6634 148.149 88.2906C148.44 88.0965 148.702 87.9638 149.029 87.8443V86.8433C148.796 86.9286 148.51 87.0489 148.102 87.3207ZM152.642 82.4045L150.376 84.4749V85.3009L152.642 83.2305V82.4045ZM151.471 85.075C150.755 85.5526 150.067 86.1647 149.369 86.9037L149.724 87.5418C150.429 86.82 150.976 86.406 151.425 86.107C151.89 85.7964 152.729 85.3003 152.729 86.0843C152.281 86.2012 151.739 86.4503 151.151 86.8425C150.062 87.5686 149.083 88.5569 149.083 89.6279C149.083 90.5589 149.683 90.53 150.644 89.8893C151.454 89.3496 152.123 88.6791 152.729 87.9183V88.4293L153.731 87.7614V85.6824C153.719 84.1292 152.904 84.1198 151.471 85.075ZM152.729 87.1483C152.217 87.7559 151.471 88.456 150.929 88.8171C150.411 89.1626 150.079 89.349 150.079 88.915C150.079 88.495 150.528 88.042 151.273 87.545C151.908 87.1217 152.38 86.9262 152.729 86.8263V87.1483ZM157.834 80.9033V81.5683C157.49 81.3354 156.913 81.4468 156.098 81.9904C154.921 82.7747 154.083 83.9499 154.083 85.4059C154.083 86.8619 154.921 86.9187 156.098 86.1344C156.908 85.5947 157.484 84.9373 157.834 84.2423C157.793 85.3265 157.408 86.0587 156.378 86.746C155.62 87.2508 154.852 87.5603 154.45 87.7372V88.7032C154.782 88.5869 155.603 88.2634 156.599 87.5995C157.898 86.7336 158.835 85.3804 158.835 83.7004V80.2354L157.834 80.9033ZM156.459 84.8926C155.521 85.5178 155.079 85.4979 155.079 84.7419C155.079 83.9859 155.521 83.3758 156.459 82.7506C157.397 82.1255 157.834 82.1493 157.834 82.9053C157.834 83.6613 157.397 84.2675 156.459 84.8926ZM159.3 78.4488V79.4918L160.296 78.8278V77.7848L159.3 78.4488ZM159.3 79.9258V84.0488L160.296 83.3848V79.2618L159.3 79.9258ZM160.762 77.4743V83.0743L161.758 82.4103V76.8103L160.762 77.4743Z" fill="#D8B68E"/>
<g clip-path="url(#clip6_423_418)">
<rect width="14" height="14" transform="matrix(0.83205 -0.5547 0 1 129.56 108.876)" fill="#D8B68E"/>
<path fillRule="evenodd" clipRule="evenodd" d="M131.002 114.611L133.404 108.009L135.384 110.811L137.364 105.369L139.766 108.768L137.78 110.092V113.494L136.948 114.048V110.647L135.806 111.408L134.962 111.97L133.82 112.732V116.134L132.988 116.688V113.287L131.002 114.611ZM131.815 119.176L138.735 114.562V113.562L131.815 118.176V119.176Z" fill="black"/>
</g>
<g clip-path="url(#clip7_423_418)">
<rect width="15" height="14" transform="matrix(0.83205 -0.5547 0 1 144.536 98.8911)" fill="#D8B68E"/>
<path fillRule="evenodd" clipRule="evenodd" d="M151.282 98.1104L151.542 97.6431L148.464 99.6951V99.6951C148.464 101.567 149.282 102.579 150.361 102.183V104.586L148.738 105.667V106.667L152.815 103.95V102.95L151.193 104.031V101.628C152.271 100.586 153.089 98.4839 153.089 96.6117V96.6117L152.149 97.2387L151.949 97.5979L152.386 97.3066L152.041 97.9616L151.372 99.2304L151.074 99.0793L151.398 98.4655L150.901 98.7966L151.282 98.1104Z" fill="black"/>
</g>
<g clip-path="url(#clip8_423_418)">
<rect width="15" height="14" transform="matrix(0.83205 -0.5547 0 1 160.345 88.3518)" fill="#D8B68E"/>
<path fillRule="evenodd" clipRule="evenodd" d="M160.577 90.4441V89.5779L162.241 88.4685V89.3347L160.577 90.4441ZM166.026 92.2017L163.256 94.0483C163.256 92.204 164.682 89.758 166.442 88.585C168.201 87.412 169.628 87.9562 169.628 89.8005L166.858 91.647V95.6221C166.858 96.1787 166.482 96.8802 166.019 97.189C165.556 97.4978 165.181 97.2968 165.181 96.7402L165.181 96.1386L166.013 95.5839L166.013 96.1855L166.013 96.1871L166.013 96.1882L166.013 96.1882C166.013 96.1886 166.014 96.1893 166.015 96.1898L166.016 96.1902L166.017 96.1902L166.017 96.1902C166.017 96.1902 166.018 96.1901 166.019 96.189C166.02 96.1883 166.021 96.1878 166.021 96.1874L166.022 96.187L166.023 96.1858L166.024 96.1836C166.025 96.182 166.025 96.1806 166.025 96.1799L166.025 96.1799C166.026 96.1796 166.026 96.1787 166.026 96.1768V92.2017ZM160.975 90.9876V91.8538L162.639 90.7444V89.8782L160.975 90.9876ZM162.568 89.1167V88.2504L164.232 87.141V88.0073L162.568 89.1167ZM162.966 89.6601V90.5264L164.63 89.417V88.5507L162.966 89.6601ZM164.559 87.7892V86.9229L166.223 85.8135V86.6798L164.559 87.7892ZM164.958 88.3326V89.1989L166.622 88.0895V87.2232L164.958 88.3326ZM166.55 86.4618V85.5956L168.214 84.4862V85.3524L166.55 86.4618ZM166.949 87.0053V87.8715L168.613 86.7621V85.8959L166.949 87.0053ZM168.542 85.1344V84.2681L170.206 83.1587V84.025L168.542 85.1344ZM168.94 85.6778V86.544L170.604 85.4346V84.5684L168.94 85.6778ZM170.533 83.8069V82.9406L172.197 81.8312V82.6975L170.533 83.8069ZM170.931 84.3503V85.2166L172.595 84.1072V83.2409L170.931 84.3503Z" fill="black"/>
</g>
<path d="M68.1794 56.8655L14.9999 78.8928L110.281 30.4889L144.771 14.6171L68.1794 56.8655Z" fill="#D8B68E"/>
<path d="M95.3958 54.3795L113.27 77.6251L184.172 30.0495L177.979 12.8691L95.3958 54.3795Z" fill="#D8B68E"/>
<path d="M22.7812 77.9414H120.534V165.751H22.7812V123.419V77.9414Z" fill="#F8CB97"/>
<path d="M120.534 77.9414L192.104 30.4977V71.7702V111.286L120.534 165.751V77.9414Z" fill="#D8B68E"/>
<path d="M120.534 104.382L191.679 59.7488V74.7233V90.5297L149.215 117.395L120.534 139.196V104.382Z" fill="#D6BC9E"/>
<path d="M120.958 78.0767H23.8071L117.423 30.927H191.369L120.958 78.0767Z" fill="#C5A17E"/>
<path fillRule="evenodd" clipRule="evenodd" d="M68.5963 104.587C70.3106 110.22 69.2481 115.533 66.2232 116.453C63.1983 117.374 59.3565 113.554 57.6422 107.921C55.9279 102.288 56.9904 96.976 60.0153 96.0554C63.0402 95.1347 66.8821 98.9547 68.5963 104.587ZM55.193 113.933C58.2598 118.174 59.0628 122.829 56.9865 124.331C54.9102 125.832 50.7409 123.611 47.6741 119.37C44.6073 115.129 43.8044 110.474 45.8806 108.973C47.9569 107.471 52.1262 109.692 55.193 113.933ZM73.1879 142.091C67.6247 147.524 60.6287 149.412 56.3972 146.215C51.4594 142.483 52.156 133.239 57.9533 125.568C62.3321 119.773 68.3684 116.533 73.1879 116.903C78.0075 116.533 84.0438 119.773 88.4226 125.568C94.2199 133.239 94.9165 142.483 89.9787 146.215C85.7472 149.412 78.7512 147.524 73.1879 142.091ZM89.2037 124.331C87.1274 122.829 87.9303 118.174 90.9971 113.933C94.0639 109.692 98.2332 107.471 100.31 108.973C102.386 110.474 101.583 115.129 98.5161 119.37C95.4493 123.611 91.28 125.832 89.2037 124.331ZM79.9674 116.453C76.9425 115.533 75.88 110.22 77.5943 104.587C79.3086 98.9547 83.1504 95.1347 86.1753 96.0554C89.2002 96.976 90.2627 102.288 88.5484 107.921C86.8341 113.554 82.9923 117.374 79.9674 116.453Z" fill="#404040"/>
<path d="M117.544 77.9766L118.101 30.8777H191.679L121.815 77.9766H117.544Z" fill="#AC8D6E"/>
<path d="M63.3958 77.9927H84.0498V92.2537H63.3958V77.9927Z" fill="#DEB079"/>
<path d="M63.3958 150.993H84.0498V165.254H63.3958V150.993Z" fill="#DEB079"/>
<rect width="58.7783" height="30.0872" transform="matrix(0.83205 -0.5547 0 1 134.521 97.1768)" fill="#1D1D1D" fill-opacity="0.3"/>
<path d="M152.718 90.2895V89.2325L148.408 92.1059V97.0059L149.456 96.307V94.774L152.368 92.8325V91.7685L149.456 93.71V92.464L152.718 90.2895ZM155.884 87.829C155.243 88.2561 154.637 88.8769 154.125 89.7716V89.0716L153.129 89.7356V93.8586L154.125 93.1946V90.7236C154.731 89.7528 155.371 89.1717 155.93 88.7989C156.222 88.6048 156.484 88.4721 156.81 88.3526V87.3516C156.577 87.4369 156.291 87.5572 155.884 87.829ZM160.423 82.9128L158.157 84.9832V85.8092L160.423 83.7388V82.9128ZM159.252 85.5833C158.536 86.0609 157.849 86.673 157.15 87.412L157.505 88.0501C158.21 87.3283 158.757 86.9143 159.206 86.6153C159.672 86.3047 160.51 85.8086 160.51 86.5926C160.062 86.7095 159.52 86.9586 158.932 87.3508C157.843 88.0769 156.864 89.0652 156.864 90.1362C156.864 91.0672 157.464 91.0383 158.425 90.3976C159.235 89.8579 159.905 89.1874 160.51 88.4266V88.9376L161.512 88.2697V86.1907C161.501 84.6375 160.685 84.6281 159.252 85.5833ZM160.51 87.6566C159.998 88.2642 159.252 88.9643 158.711 89.3254C158.192 89.6709 157.86 89.8573 157.86 89.4233C157.86 89.0033 158.309 88.5503 159.054 88.0533C159.689 87.63 160.161 87.4345 160.51 87.3346V87.6566ZM165.615 81.4116V82.0766C165.271 81.8437 164.695 81.9551 163.879 82.4987C162.703 83.283 161.864 84.4582 161.864 85.9142C161.864 87.3702 162.703 87.427 163.879 86.6427C164.689 86.103 165.265 85.4456 165.615 84.7506C165.574 85.8348 165.19 86.567 164.159 87.2543C163.402 87.7591 162.633 88.0686 162.231 88.2455V89.2115C162.563 89.0952 163.384 88.7717 164.38 88.1078C165.679 87.2419 166.617 85.8887 166.617 84.2087V80.7437L165.615 81.4116ZM164.24 85.4009C163.303 86.0261 162.86 86.0062 162.86 85.2502C162.86 84.4942 163.303 83.8841 164.24 83.2589C165.178 82.6338 165.615 82.6576 165.615 83.4136C165.615 84.1696 165.178 84.7758 164.24 85.4009ZM167.081 78.9571V80.0001L168.077 79.3361V78.2931L167.081 78.9571ZM167.081 80.4341V84.5571L168.077 83.8931V79.7701L167.081 80.4341ZM168.543 77.9826V83.5826L169.539 82.9186V77.3186L168.543 77.9826Z" fill="#D8B68E"/>
<g clip-path="url(#clip9_423_418)">
<rect width="14" height="14" transform="matrix(0.83205 -0.5547 0 1 137.341 109.384)" fill="#D8B68E"/>
<path fillRule="evenodd" clipRule="evenodd" d="M138.783 115.119L141.185 108.518L143.165 111.319L145.145 105.878L147.547 109.276L145.561 110.6V114.002L144.729 114.557V111.155L143.587 111.916L142.743 112.479L141.601 113.24V116.642L140.769 117.197V113.795L138.783 115.119ZM139.596 119.684L146.516 115.071V114.071L139.596 118.684V119.684Z" fill="black"/>
</g>
<rect width="15" height="14" transform="matrix(0.83205 -0.5547 0 1 152.318 99.3994)" fill="#D8B68E"/>
<path fillRule="evenodd" clipRule="evenodd" d="M159.064 98.6187L159.323 98.1514L156.245 100.203V100.203C156.245 102.075 157.063 103.087 158.142 102.691V105.094L156.52 106.176V107.176L160.596 104.458V103.458L158.974 104.54V102.137C160.053 101.095 160.87 98.9922 160.87 97.12V97.12L159.93 97.747L159.73 98.1062L160.167 97.8149L159.822 98.4699L159.153 99.7387L158.855 99.5876L159.179 98.9738L158.682 99.3049L159.064 98.6187Z" fill="black"/>
<g clip-path="url(#clip10_423_418)">
<rect width="15" height="14" transform="matrix(0.83205 -0.5547 0 1 168.127 88.8601)" fill="#D8B68E"/>
<path fillRule="evenodd" clipRule="evenodd" d="M168.358 90.9524V90.0862L170.022 88.9768V89.843L168.358 90.9524ZM173.807 92.71L171.037 94.5566C171.037 92.7123 172.463 90.2663 174.223 89.0933C175.982 87.9203 177.409 88.4645 177.409 90.3088L174.639 92.1553V96.1304C174.639 96.687 174.264 97.3885 173.801 97.6973C173.337 98.0061 172.962 97.8051 172.962 97.2485L172.962 96.6469L173.794 96.0922L173.794 96.6938L173.794 96.6954L173.794 96.6965L173.794 96.6965C173.795 96.6969 173.795 96.6976 173.796 96.6981L173.797 96.6985L173.798 96.6985L173.798 96.6985C173.798 96.6985 173.799 96.6984 173.801 96.6973C173.802 96.6966 173.802 96.6961 173.802 96.6957L173.803 96.6953L173.804 96.6941L173.805 96.6919C173.806 96.6903 173.806 96.6889 173.807 96.6882L173.807 96.6882C173.807 96.6879 173.807 96.687 173.807 96.6851V92.71ZM168.756 91.4959V92.3621L170.42 91.2527V90.3865L168.756 91.4959ZM170.349 89.625V88.7587L172.013 87.6493V88.5156L170.349 89.625ZM170.748 90.1684V91.0347L172.412 89.9253V89.059L170.748 90.1684ZM172.341 88.2975V87.4312L174.005 86.3218V87.1881L172.341 88.2975ZM172.739 88.8409V89.7072L174.403 88.5978V87.7315L172.739 88.8409ZM174.332 86.9701V86.1039L175.996 84.9945V85.8607L174.332 86.9701ZM174.73 87.5136V88.3798L176.394 87.2704V86.4042L174.73 87.5136ZM176.323 85.6427V84.7764L177.987 83.667V84.5333L176.323 85.6427ZM176.721 86.1861V87.0523L178.385 85.9429V85.0767L176.721 86.1861ZM178.314 84.3152V83.4489L179.978 82.3395V83.2058L178.314 84.3152ZM178.712 84.8586V85.7249L180.376 84.6155V83.7492L178.712 84.8586Z" fill="black"/>
</g>
<path d="M4.39372 57.1925L22.7816 79.4011L118.062 30.9972L110.674 12.0808L4.39372 57.1925Z" fill="#D8B68E"/>
<path d="M127.166 44.5931L121.052 78.1335L191.954 30.5578L197.987 6.93677L127.166 44.5931Z" fill="#D8B68E"/>
<path d="M17.7148 75.6221H115.467V163.432H17.7148V121.099V75.6221Z" fill="#F8CB97"/>
<path d="M115.467 75.6221L187.038 28.1784V69.4508V108.967L115.467 163.432V75.6221Z" fill="#D8B68E"/>
<path d="M115.467 102.062L186.612 57.4294V72.4039V88.2104L144.148 115.076L115.467 136.877V102.062Z" fill="#D6BC9E"/>
<path d="M115.891 75.7573H18.7407L112.357 28.6077H186.302L115.891 75.7573Z" fill="#C5A17E"/>
<path fillRule="evenodd" clipRule="evenodd" d="M63.5299 102.268C65.2442 107.901 64.1817 113.213 61.1568 114.134C58.1319 115.054 54.2901 111.235 52.5758 105.602C50.8615 99.9691 51.924 94.6566 54.9489 93.736C57.9738 92.8154 61.8157 96.6353 63.5299 102.268ZM50.1266 111.614C53.1934 115.855 53.9964 120.51 51.9201 122.011C49.8438 123.513 45.6745 121.292 42.6077 117.051C39.5409 112.81 38.738 108.155 40.8142 106.654C42.8905 105.152 47.0598 107.373 50.1266 111.614ZM68.1215 139.772C62.5583 145.205 55.5623 147.093 51.3308 143.895C46.3929 140.164 47.0896 130.92 52.8869 123.248C57.2657 117.454 63.302 114.214 68.1215 114.584C72.9411 114.214 78.9774 117.454 83.3562 123.248C89.1534 130.92 89.8501 140.164 84.9123 143.895C80.6808 147.093 73.6848 145.205 68.1215 139.772ZM84.1373 122.011C82.061 120.51 82.8639 115.855 85.9307 111.614C88.9975 107.373 93.1668 105.152 95.2431 106.654C97.3194 108.155 96.5164 112.81 93.4496 117.051C90.3828 121.292 86.2136 123.513 84.1373 122.011ZM74.901 114.134C71.8761 113.213 70.8136 107.901 72.5279 102.268C74.2421 96.6353 78.084 92.8154 81.1089 93.736C84.1338 94.6566 85.1963 99.9691 83.482 105.602C81.7677 111.235 77.9259 115.054 74.901 114.134Z" fill="#404040"/>
<path d="M112.478 75.6575L113.034 28.5586H186.612L116.749 75.6575H112.478Z" fill="#AC8D6E"/>
<path d="M58.3293 75.6733H78.9834V89.9344H58.3293V75.6733Z" fill="#DEB079"/>
<path d="M58.3293 148.673H78.9834V162.934H58.3293V148.673Z" fill="#DEB079"/>
<rect width="58.7783" height="30.0872" transform="matrix(0.83205 -0.5547 0 1 129.455 94.8577)" fill="#1D1D1D" fill-opacity="0.3"/>
<path d="M147.652 87.9704V86.9134L143.342 89.7868V94.6868L144.39 93.9879V92.4549L147.302 90.5134V89.4494L144.39 91.3909V90.1449L147.652 87.9704ZM150.817 85.5099C150.177 85.937 149.571 86.5578 149.058 87.4525V86.7525L148.062 87.4165V91.5395L149.058 90.8755V88.4045C149.664 87.4337 150.305 86.8526 150.864 86.4798C151.155 86.2857 151.417 86.153 151.743 86.0335V85.0325C151.51 85.1178 151.225 85.2381 150.817 85.5099ZM155.357 80.5937L153.091 82.6642V83.4902L155.357 81.4197V80.5937ZM154.186 83.2642C153.47 83.7418 152.782 84.3539 152.083 85.0929L152.439 85.731C153.143 85.0092 153.691 84.5952 154.139 84.2962C154.605 83.9856 155.444 83.4895 155.444 84.2735C154.996 84.3904 154.454 84.6396 153.866 85.0317C152.776 85.7578 151.798 86.7462 151.798 87.8172C151.798 88.7482 152.398 88.7192 153.359 88.0785C154.168 87.5388 154.838 86.8683 155.444 86.1075V86.6185L156.446 85.9506V83.8716C156.434 82.3184 155.619 82.309 154.186 83.2642ZM155.444 85.3375C154.931 85.9452 154.186 86.6452 153.644 87.0063C153.126 87.3519 152.794 87.5382 152.794 87.1042C152.794 86.6842 153.242 86.2312 153.988 85.7342C154.623 85.3109 155.095 85.1154 155.444 85.0155V85.3375ZM160.548 79.0925V79.7575C160.205 79.5246 159.628 79.636 158.813 80.1796C157.636 80.9639 156.798 82.1391 156.798 83.5951C156.798 85.0511 157.636 85.1079 158.813 84.3236C159.622 83.7839 160.199 83.1265 160.548 82.4315C160.508 83.5157 160.123 84.2479 159.092 84.9352C158.335 85.44 157.566 85.7495 157.165 85.9265V86.8925C157.497 86.7761 158.318 86.4526 159.314 85.7887C160.613 84.9228 161.55 83.5696 161.55 81.8896V78.4246L160.548 79.0925ZM159.174 83.0819C158.236 83.707 157.794 83.6871 157.794 82.9311C157.794 82.1751 158.236 81.565 159.174 80.9399C160.112 80.3147 160.548 80.3385 160.548 81.0945C160.548 81.8505 160.112 82.4567 159.174 83.0819ZM162.015 76.638V77.681L163.011 77.017V75.974L162.015 76.638ZM162.015 78.115V82.238L163.011 81.574V77.451L162.015 78.115ZM163.476 75.6635V81.2635L164.472 80.5995V74.9995L163.476 75.6635Z" fill="#D8B68E"/>
<g clip-path="url(#clip11_423_418)">
<rect width="14" height="14" transform="matrix(0.83205 -0.5547 0 1 132.274 107.065)" fill="#D8B68E"/>
<path fillRule="evenodd" clipRule="evenodd" d="M133.717 112.8L136.119 106.199L138.099 109L140.079 103.558L142.481 106.957L140.495 108.281V111.683L139.663 112.238V108.836L138.521 109.597L137.677 110.16L136.535 110.921V114.323L135.703 114.878V111.476L133.717 112.8ZM134.53 117.365L141.45 112.752V111.752L134.53 116.365V117.365Z" fill="black"/>
</g>
<g clip-path="url(#clip12_423_418)">
<rect width="15" height="14" transform="matrix(0.83205 -0.5547 0 1 147.251 97.0803)" fill="#D8B68E"/>
<path fillRule="evenodd" clipRule="evenodd" d="M153.997 96.2996L154.257 95.8323L151.179 97.8843V97.8843C151.179 99.7564 151.997 100.768 153.075 100.372V102.775L151.453 103.857V104.857L155.53 102.139V101.139L153.907 102.221V99.8177C154.986 98.7754 155.804 96.6731 155.804 94.8009V94.8009L154.864 95.4279L154.664 95.7871L155.101 95.4959L154.755 96.1508L154.086 97.4196L153.789 97.2685L154.112 96.6547L153.616 96.9858L153.997 96.2996Z" fill="black"/>
</g>
<g clip-path="url(#clip13_423_418)">
<rect width="15" height="14" transform="matrix(0.83205 -0.5547 0 1 163.06 86.541)" fill="#D8B68E"/>
<path fillRule="evenodd" clipRule="evenodd" d="M163.292 88.6334V87.7671L164.956 86.6577V87.524L163.292 88.6334ZM168.741 90.3909L165.971 92.2376C165.971 90.3932 167.397 87.9472 169.157 86.7742C170.916 85.6012 172.342 86.1454 172.342 87.9897L169.573 89.8362V93.8113C169.573 94.3679 169.197 95.0695 168.734 95.3782C168.271 95.687 167.896 95.486 167.896 94.9294L167.896 94.3278L168.728 93.7731L168.728 94.3747L168.728 94.3763L168.728 94.3774L168.728 94.3774C168.728 94.3778 168.729 94.3785 168.729 94.379L168.731 94.3794L168.732 94.3794L168.732 94.3794C168.732 94.3794 168.732 94.3793 168.734 94.3782C168.735 94.3775 168.736 94.377 168.736 94.3767L168.737 94.3762L168.737 94.375L168.739 94.3728C168.74 94.3712 168.74 94.3699 168.74 94.3691L168.74 94.3691C168.74 94.3688 168.741 94.368 168.741 94.366V90.3909ZM163.69 89.1768V90.043L165.354 88.9336V88.0674L163.69 89.1768ZM165.283 87.3059V86.4396L166.947 85.3302V86.1965L165.283 87.3059ZM165.681 87.8493V88.7156L167.345 87.6062V86.7399L165.681 87.8493ZM167.274 85.9784V85.1121L168.938 84.0027V84.869L167.274 85.9784ZM167.672 86.5218V87.3881L169.336 86.2787V85.4124L167.672 86.5218ZM169.265 84.651V83.7848L170.929 82.6754V83.5416L169.265 84.651ZM169.663 85.1945V86.0607L171.328 84.9513V84.0851L169.663 85.1945ZM171.256 83.3236V82.4573L172.921 81.3479V82.2142L171.256 83.3236ZM171.655 83.867V84.7332L173.319 83.6238V82.7576L171.655 83.867ZM173.248 81.9961V81.1298L174.912 80.0204V80.8867L173.248 81.9961ZM173.646 82.5395V83.4058L175.31 82.2964V81.4301L173.646 82.5395Z" fill="black"/>
</g>
<path d="M1.53789 62.2826L17.7149 77.0819L112.996 28.6779L103.397 13.4974L1.53789 62.2826Z" fill="#D8B68E"/>
<path d="M142.104 43.3237L115.985 75.8143L186.888 28.2386L199.795 9.6582L142.104 43.3237Z" fill="#D8B68E"/>
<path d="M15.7268 68.2068H113.479V156.016H15.7268V113.684V68.2068Z" fill="#F8CB97"/>
<path d="M113.479 68.2068L185.05 20.7631V62.0355V101.552L113.479 156.016V68.2068Z" fill="#D8B68E"/>
<path d="M113.479 94.6472L184.624 50.0141V64.9887V80.7951L142.16 107.66L113.479 129.461V94.6472Z" fill="#D6BC9E"/>
<path d="M113.903 68.342H16.7527L110.369 21.1924H184.314L113.903 68.342Z" fill="#C5A17E"/>
<path fillRule="evenodd" clipRule="evenodd" d="M61.5419 94.8525C63.2562 100.485 62.1937 105.798 59.1688 106.718C56.1439 107.639 52.302 103.819 50.5878 98.1863C48.8735 92.5536 49.936 87.2411 52.9609 86.3205C55.9858 85.3999 59.8276 89.2198 61.5419 94.8525ZM48.1386 104.198C51.2054 108.439 52.0084 113.094 49.9321 114.596C47.8558 116.097 43.6865 113.877 40.6197 109.636C37.5529 105.395 36.7499 100.739 38.8262 99.238C40.9025 97.7366 45.0718 99.9574 48.1386 104.198ZM66.1335 132.356C60.5702 137.789 53.5742 139.677 49.3428 136.48C44.4049 132.748 45.1016 123.504 50.8988 115.833C55.2776 110.039 61.3139 106.799 66.1335 107.168C70.9531 106.799 76.9894 110.039 81.3681 115.833C87.1654 123.504 87.8621 132.748 82.9242 136.48C78.6928 139.677 71.6968 137.789 66.1335 132.356ZM82.1492 114.596C80.0729 113.094 80.8759 108.439 83.9427 104.198C87.0095 99.9574 91.1788 97.7366 93.2551 99.238C95.3314 100.739 94.5284 105.395 91.4616 109.636C88.3948 113.877 84.2255 116.097 82.1492 114.596ZM72.9129 106.718C69.888 105.798 68.8256 100.485 70.5398 94.8525C72.2541 89.2198 76.096 85.3999 79.1209 86.3205C82.1458 87.2411 83.2082 92.5536 81.494 98.1863C79.7797 103.819 75.9378 107.639 72.9129 106.718Z" fill="#404040"/>
<path d="M110.49 68.2419L111.046 21.1431H184.624L114.761 68.2419H110.49Z" fill="#AC8D6E"/>
<path d="M56.3413 68.2581H76.9954V82.5191H56.3413V68.2581Z" fill="#DEB079"/>
<path d="M56.3413 141.258H76.9954V155.519H56.3413V141.258Z" fill="#DEB079"/>
<rect width="58.7783" height="30.0872" transform="matrix(0.83205 -0.5547 0 1 127.467 87.4421)" fill="#1D1D1D" fill-opacity="0.3"/>
<path d="M145.663 80.5549V79.4979L141.353 82.3713V87.2713L142.402 86.5723V85.0393L145.314 83.0979V82.0339L142.402 83.9753V82.7293L145.663 80.5549ZM148.829 78.0944C148.189 78.5215 147.583 79.1423 147.07 80.037V79.337L146.074 80.001V84.124L147.07 83.46V80.989C147.676 80.0182 148.317 79.4371 148.876 79.0643C149.167 78.8702 149.429 78.7374 149.755 78.618V77.617C149.522 77.7023 149.237 77.8226 148.829 78.0944ZM153.369 73.1782L151.103 75.2486V76.0746L153.369 74.0042V73.1782ZM152.198 75.8486C151.482 76.3262 150.794 76.9384 150.095 77.6774L150.451 78.3155C151.155 77.5937 151.703 77.1797 152.151 76.8807C152.617 76.5701 153.456 76.0739 153.456 76.8579C153.008 76.9749 152.466 77.224 151.878 77.6162C150.788 78.3423 149.81 79.3306 149.81 80.4016C149.81 81.3326 150.41 81.3037 151.371 80.663C152.18 80.1233 152.85 79.4528 153.456 78.6919V79.2029L154.458 78.5351V76.4561C154.446 74.9028 153.631 74.8934 152.198 75.8486ZM153.456 77.9219C152.943 78.5296 152.198 79.2296 151.656 79.5907C151.138 79.9363 150.806 80.1227 150.806 79.6887C150.806 79.2687 151.254 78.8157 152 78.3187C152.635 77.8954 153.107 77.6999 153.456 77.5999V77.9219ZM158.56 71.677V72.342C158.217 72.1091 157.64 72.2205 156.825 72.7641C155.648 73.5484 154.81 74.7236 154.81 76.1796C154.81 77.6356 155.648 77.6924 156.825 76.9081C157.634 76.3683 158.211 75.7109 158.56 75.016C158.52 76.1001 158.135 76.8324 157.104 77.5197C156.347 78.0245 155.578 78.334 155.176 78.5109V79.4769C155.508 79.3606 156.33 79.0371 157.326 78.3731C158.624 77.5073 159.562 76.1541 159.562 74.4741V71.0091L158.56 71.677ZM157.186 75.6663C156.248 76.2915 155.806 76.2716 155.806 75.5156C155.806 74.7596 156.248 74.1495 157.186 73.5243C158.124 72.8992 158.56 72.923 158.56 73.679C158.56 74.435 158.124 75.0412 157.186 75.6663ZM160.027 69.2225V70.2655L161.023 69.6015V68.5585L160.027 69.2225ZM160.027 70.6995V74.8225L161.023 74.1585V70.0355L160.027 70.6995ZM161.488 68.248V73.848L162.484 73.184V67.584L161.488 68.248Z" fill="#D8B68E"/>
<g clip-path="url(#clip14_423_418)">
<rect width="14" height="14" transform="matrix(0.83205 -0.5547 0 1 130.286 99.6494)" fill="#D8B68E"/>
<path fillRule="evenodd" clipRule="evenodd" d="M131.729 105.384L134.131 98.783L136.111 101.585L138.091 96.1429L140.493 99.5416L138.507 100.866V104.267L137.675 104.822V101.42L136.533 102.182L135.689 102.744L134.547 103.506V106.907L133.715 107.462V104.06L131.729 105.384ZM132.542 109.949L139.462 105.336V104.336L132.542 108.949V109.949Z" fill="black"/>
</g>
<g clip-path="url(#clip15_423_418)">
<rect width="15" height="14" transform="matrix(0.83205 -0.5547 0 1 145.263 89.6648)" fill="#D8B68E"/>
<path fillRule="evenodd" clipRule="evenodd" d="M152.009 88.8841L152.269 88.4168L149.191 90.4688V90.4688C149.191 92.3409 150.009 93.3527 151.087 92.9568V95.3597L149.465 96.4411V97.4411L153.542 94.7235V93.7235L151.919 94.805V92.4021C152.998 91.3599 153.816 89.2575 153.816 87.3854V87.3854L152.876 88.0123L152.676 88.3716L153.113 88.0803L152.767 88.7353L152.098 90.0041L151.801 89.853L152.124 89.2392L151.628 89.5703L152.009 88.8841Z" fill="black"/>
</g>
<g clip-path="url(#clip16_423_418)">
<rect width="15" height="14" transform="matrix(0.83205 -0.5547 0 1 161.072 79.1255)" fill="#D8B68E"/>
<path fillRule="evenodd" clipRule="evenodd" d="M161.304 81.2178V80.3516L162.968 79.2422V80.1084L161.304 81.2178ZM166.753 82.9754L163.983 84.822C163.983 82.9777 165.409 80.5317 167.169 79.3586C168.928 78.1856 170.354 78.7299 170.354 80.5742L167.585 82.4207V86.3958C167.585 86.9524 167.209 87.6539 166.746 87.9627C166.283 88.2714 165.907 88.0705 165.907 87.5139L165.908 86.9122L166.74 86.3576L166.74 86.9592L166.74 86.9608L166.74 86.9618L166.74 86.9619C166.74 86.9623 166.741 86.963 166.741 86.9635L166.743 86.9639L166.744 86.9639L166.744 86.9639C166.744 86.9638 166.744 86.9638 166.746 86.9627C166.747 86.962 166.748 86.9615 166.748 86.9611L166.748 86.9607L166.749 86.9595L166.751 86.9573C166.752 86.9556 166.752 86.9543 166.752 86.9536L166.752 86.9536C166.752 86.9533 166.753 86.9524 166.753 86.9505V82.9754ZM161.702 81.7612V82.6275L163.366 81.5181V80.6518L161.702 81.7612ZM163.295 79.8903V79.0241L164.959 77.9147V78.7809L163.295 79.8903ZM163.693 80.4338V81.3L165.357 80.1906V79.3244L163.693 80.4338ZM165.286 78.5629V77.6966L166.95 76.5872V77.4535L165.286 78.5629ZM165.684 79.1063V79.9726L167.348 78.8632V77.9969L165.684 79.1063ZM167.277 77.2355V76.3692L168.941 75.2598V76.1261L167.277 77.2355ZM167.675 77.7789V78.6452L169.339 77.5358V76.6695L167.675 77.7789ZM169.268 75.908V75.0418L170.932 73.9324V74.7986L169.268 75.908ZM169.667 76.4515V77.3177L171.331 76.2083V75.3421L169.667 76.4515ZM171.26 74.5806V73.7143L172.924 72.6049V73.4712L171.26 74.5806ZM171.658 75.124V75.9902L173.322 74.8808V74.0146L171.658 75.124Z" fill="black"/>
</g>
<path d="M142.913 44.9931L113.997 68.3988L184.899 20.8231L196.558 11.0044L142.913 44.9931Z" fill="#D8B68E"/>
<path d="M3.27258 65.8777L15.727 69.6664L111.008 21.2625L94.1823 21.2625L3.27258 65.8777Z" fill="#D8B68E"/>
<path d="M9.40918 63.575H107.162V151.384H9.40918V109.052V63.575Z" fill="#F8CB97"/>
<path d="M107.162 63.575L178.732 16.1312V57.4037V96.9197L107.162 151.384V63.575Z" fill="#D8B68E"/>
<path d="M107.162 90.0154L178.307 45.3823V60.3568V76.1633L135.843 103.028L107.162 124.829V90.0154Z" fill="#D6BC9E"/>
<path d="M107.586 63.7102H10.4351L104.051 16.5605H177.997L107.586 63.7102Z" fill="#C5A17E"/>
<g filter="url(#filter0_d_423_418)">
<path fillRule="evenodd" clipRule="evenodd" d="M175.904 18.5569L107.57 64.113L120.5 70.8006L175.904 31.859V18.5569Z" fill="#F8CB97"/>
</g>
<path d="M125.842 74.045L107.205 63.9301L178.779 16.3013L198.403 24.3281L125.842 74.045Z" fill="#F8CB97"/>
<path d="M1 74.1217L10.7466 63.9109V74.1217H1Z" fill="#D8B68E"/>
<path fillRule="evenodd" clipRule="evenodd" d="M55.2242 90.2209C56.9385 95.8536 55.876 101.166 52.8511 102.087C49.8262 103.007 45.9843 99.1874 44.2701 93.5547C42.5558 87.922 43.6183 82.6095 46.6432 81.6889C49.6681 80.7683 53.5099 84.5882 55.2242 90.2209ZM41.821 99.5667C44.8878 103.808 45.6907 108.463 43.6144 109.964C41.5382 111.466 37.3689 109.245 34.3021 105.004C31.2353 100.763 30.4323 96.1078 32.5086 94.6064C34.5849 93.1049 38.7542 95.3257 41.821 99.5667ZM59.8157 127.725C54.2524 133.158 47.2566 135.046 43.0253 131.848C38.0874 128.117 38.7841 118.873 44.5813 111.201C48.96 105.407 54.9961 102.167 59.8157 102.536C64.6352 102.167 70.6713 105.407 75.05 111.201C80.8472 118.873 81.5439 128.117 76.606 131.848C72.3747 135.046 65.3789 133.158 59.8157 127.725ZM75.8316 109.964C73.7553 108.463 74.5582 103.808 77.625 99.5667C80.6918 95.3257 84.8611 93.1049 86.9374 94.6064C89.0137 96.1078 88.2107 100.763 85.1439 105.004C82.0771 109.245 77.9078 111.466 75.8316 109.964ZM66.5954 102.087C63.5705 101.166 62.508 95.8536 64.2223 90.2209C65.9365 84.5882 69.7784 80.7683 72.8033 81.6889C75.8282 82.6095 76.8907 87.922 75.1764 93.5547C73.4621 99.1874 69.6203 103.007 66.5954 102.087Z" fill="#404040"/>
<path d="M104.172 63.6104L104.729 16.5115H178.307L108.443 63.6104H104.172Z" fill="#AC8D6E"/>
<path d="M50.0234 63.6262H70.6775V77.8873H50.0234V63.6262Z" fill="#DEB079"/>
<path d="M50.0234 136.626H70.6775V150.887H50.0234V136.626Z" fill="#DEB079"/>
<rect width="58.7783" height="30.0872" transform="matrix(0.83205 -0.5547 0 1 121.149 82.8105)" fill="#1D1D1D" fill-opacity="0.3"/>
<path d="M139.346 75.9233V74.8663L135.036 77.7397V82.6397L136.084 81.9408V80.4078L138.996 78.4663V77.4023L136.084 79.3438V78.0978L139.346 75.9233ZM142.512 73.4628C141.871 73.8899 141.265 74.5107 140.753 75.4054V74.7054L139.757 75.3694V79.4924L140.753 78.8284V76.3574C141.358 75.3866 141.999 74.8055 142.558 74.4327C142.849 74.2386 143.112 74.1059 143.438 73.9864V72.9854C143.205 73.0707 142.919 73.191 142.512 73.4628ZM147.051 68.5466L144.785 70.617V71.443L147.051 69.3726V68.5466ZM145.88 71.217C145.164 71.6946 144.477 72.3068 143.778 73.0458L144.133 73.6839C144.838 72.9621 145.385 72.5481 145.834 72.2491C146.3 71.9385 147.138 71.4423 147.138 72.2263C146.69 72.3433 146.148 72.5924 145.56 72.9846C144.471 73.7107 143.492 74.699 143.492 75.77C143.492 76.701 144.092 76.6721 145.053 76.0314C145.863 75.4917 146.533 74.8212 147.138 74.0603V74.5713L148.14 73.9035V71.8245C148.128 70.2712 147.313 70.2619 145.88 71.217ZM147.138 73.2903C146.626 73.898 145.88 74.598 145.339 74.9592C144.82 75.3047 144.488 75.4911 144.488 75.0571C144.488 74.6371 144.937 74.1841 145.682 73.6871C146.317 73.2638 146.789 73.0683 147.138 72.9683V73.2903ZM152.243 67.0454V67.7104C151.899 67.4775 151.323 67.5889 150.507 68.1325C149.331 68.9168 148.492 70.092 148.492 71.548C148.492 73.004 149.331 73.0608 150.507 72.2765C151.317 71.7368 151.893 71.0793 152.243 70.3844C152.202 71.4686 151.818 72.2008 150.787 72.8881C150.03 73.3929 149.261 73.7024 148.859 73.8793V74.8453C149.191 74.729 150.012 74.4055 151.008 73.7415C152.307 72.8757 153.245 71.5225 153.245 69.8425V66.3775L152.243 67.0454ZM150.868 71.0347C149.931 71.6599 149.488 71.64 149.488 70.884C149.488 70.128 149.931 69.5179 150.868 68.8927C151.806 68.2676 152.243 68.2914 152.243 69.0474C152.243 69.8034 151.806 70.4096 150.868 71.0347ZM153.709 64.5909V65.6339L154.705 64.9699V63.9269L153.709 64.5909ZM153.709 66.0679V70.1909L154.705 69.5269V65.4039L153.709 66.0679ZM155.171 63.6164V69.2164L156.167 68.5524V62.9524L155.171 63.6164Z" fill="#D8B68E"/>
<g clip-path="url(#clip17_423_418)">
<rect width="14" height="14" transform="matrix(0.83205 -0.5547 0 1 123.969 95.0178)" fill="#D8B68E"/>
<path fillRule="evenodd" clipRule="evenodd" d="M125.411 100.753L127.813 94.1514L129.793 96.9532L131.773 91.5113L134.175 94.91L132.189 96.2339V99.6357L131.357 100.19V96.7886L130.215 97.5501L129.371 98.1126L128.229 98.8741V102.276L127.397 102.831V99.4288L125.411 100.753ZM126.224 105.318L133.144 100.705V99.7046L126.224 104.318V105.318Z" fill="black"/>
</g>
<g clip-path="url(#clip18_423_418)">
<rect width="15" height="14" transform="matrix(0.83205 -0.5547 0 1 138.946 85.0332)" fill="#D8B68E"/>
<path fillRule="evenodd" clipRule="evenodd" d="M145.692 84.2525L145.951 83.7852L142.873 85.8372V85.8372C142.873 87.7093 143.691 88.7211 144.77 88.3252V90.7281L143.148 91.8095V92.8095L147.224 90.0919V89.0919L145.602 90.1734V87.7705C146.68 86.7283 147.498 84.626 147.498 82.7538V82.7538L146.558 83.3808L146.358 83.74L146.795 83.4487L146.45 84.1037L145.781 85.3725L145.483 85.2214L145.807 84.6076L145.31 84.9387L145.692 84.2525Z" fill="black"/>
</g>
<g clip-path="url(#clip19_423_418)">
<rect width="15" height="14" transform="matrix(0.83205 -0.5547 0 1 154.755 74.4939)" fill="#D8B68E"/>
<path fillRule="evenodd" clipRule="evenodd" d="M154.986 76.5862V75.72L156.65 74.6106V75.4768L154.986 76.5862ZM160.435 78.3438L157.665 80.1904C157.665 78.3461 159.091 75.9001 160.851 74.7271C162.61 73.554 164.037 74.0983 164.037 75.9426L161.267 77.7891V81.7642C161.267 82.3208 160.892 83.0223 160.428 83.3311C159.965 83.6398 159.59 83.4389 159.59 82.8823L159.59 82.2806L160.422 81.726L160.422 82.3276L160.422 82.3292L160.422 82.3302L160.422 82.3303C160.422 82.3307 160.423 82.3314 160.424 82.3319L160.425 82.3323L160.426 82.3323L160.426 82.3323C160.426 82.3322 160.427 82.3322 160.428 82.3311C160.429 82.3304 160.43 82.3299 160.43 82.3295L160.431 82.3291L160.432 82.3279L160.433 82.3257C160.434 82.324 160.434 82.3227 160.435 82.322L160.435 82.322C160.435 82.3217 160.435 82.3208 160.435 82.3189V78.3438ZM155.384 77.1297V77.9959L157.048 76.8865V76.0203L155.384 77.1297ZM156.977 75.2588V74.3925L158.641 73.2831V74.1494L156.977 75.2588ZM157.376 75.8022V76.6684L159.04 75.559V74.6928L157.376 75.8022ZM158.969 73.9313V73.065L160.633 71.9556V72.8219L158.969 73.9313ZM159.367 74.4747V75.341L161.031 74.2316V73.3653L159.367 74.4747ZM160.96 72.6039V71.7377L162.624 70.6283V71.4945L160.96 72.6039ZM161.358 73.1473V74.0136L163.022 72.9042V72.0379L161.358 73.1473ZM162.951 71.2764V70.4102L164.615 69.3008V70.167L162.951 71.2764ZM163.349 71.8199V72.6861L165.013 71.5767V70.7105L163.349 71.8199ZM164.942 69.949V69.0827L166.606 67.9733V68.8396L164.942 69.949ZM165.34 70.4924V71.3587L167.004 70.2493V69.383L165.34 70.4924Z" fill="black"/>
</g>
<defs>
<filter id="filter0_d_423_418" x="101.57" y="15.5569" width="80.3342" height="64.2437" filterUnits="userSpaceOnUse" color-interpolation-filters="sRGB">
<feFlood flood-opacity="0" result="BackgroundImageFix"/>
<feColorMatrix in="SourceAlpha" type="matrix" values="0 0 0 0 0 0 0 0 0 0 0 0 0 0 0 0 0 0 127 0" result="hardAlpha"/>
<feOffset dy="3"/>
<feGaussianBlur stdDeviation="3"/>
<feComposite in2="hardAlpha" operator="out"/>
<feColorMatrix type="matrix" values="0 0 0 0 0.670833 0 0 0 0 0.548942 0 0 0 0 0.40809 0 0 0 1 0"/>
<feBlend mode="normal" in2="BackgroundImageFix" result="effect1_dropShadow_423_418"/>
<feBlend mode="normal" in="SourceGraphic" in2="effect1_dropShadow_423_418" result="shape"/>
</filter>
<clipPath id="clip0_423_418">
<rect width="14" height="14" fill="white" transform="matrix(0.83205 -0.5547 0 1 129.56 95.0178)"/>
</clipPath>
<clipPath id="clip1_423_418">
<rect width="15" height="14" fill="white" transform="matrix(0.83205 -0.5547 0 1 144.536 85.0332)"/>
</clipPath>
<clipPath id="clip2_423_418">
<rect width="15" height="14" fill="white" transform="matrix(0.83205 -0.5547 0 1 160.345 74.4939)"/>
</clipPath>
<clipPath id="clip3_423_418">
<rect width="14" height="14" fill="white" transform="matrix(0.83205 -0.5547 0 1 129.56 106.217)"/>
</clipPath>
<clipPath id="clip4_423_418">
<rect width="15" height="14" fill="white" transform="matrix(0.83205 -0.5547 0 1 144.536 96.2324)"/>
</clipPath>
<clipPath id="clip5_423_418">
<rect width="15" height="14" fill="white" transform="matrix(0.83205 -0.5547 0 1 160.345 85.6931)"/>
</clipPath>
<clipPath id="clip6_423_418">
<rect width="14" height="14" fill="white" transform="matrix(0.83205 -0.5547 0 1 129.56 108.876)"/>
</clipPath>
<clipPath id="clip7_423_418">
<rect width="15" height="14" fill="white" transform="matrix(0.83205 -0.5547 0 1 144.536 98.8911)"/>
</clipPath>
<clipPath id="clip8_423_418">
<rect width="15" height="14" fill="white" transform="matrix(0.83205 -0.5547 0 1 160.345 88.3518)"/>
</clipPath>
<clipPath id="clip9_423_418">
<rect width="14" height="14" fill="white" transform="matrix(0.83205 -0.5547 0 1 137.341 109.384)"/>
</clipPath>
<clipPath id="clip10_423_418">
<rect width="15" height="14" fill="white" transform="matrix(0.83205 -0.5547 0 1 168.127 88.8601)"/>
</clipPath>
<clipPath id="clip11_423_418">
<rect width="14" height="14" fill="white" transform="matrix(0.83205 -0.5547 0 1 132.274 107.065)"/>
</clipPath>
<clipPath id="clip12_423_418">
<rect width="15" height="14" fill="white" transform="matrix(0.83205 -0.5547 0 1 147.251 97.0803)"/>
</clipPath>
<clipPath id="clip13_423_418">
<rect width="15" height="14" fill="white" transform="matrix(0.83205 -0.5547 0 1 163.06 86.541)"/>
</clipPath>
<clipPath id="clip14_423_418">
<rect width="14" height="14" fill="white" transform="matrix(0.83205 -0.5547 0 1 130.286 99.6494)"/>
</clipPath>
<clipPath id="clip15_423_418">
<rect width="15" height="14" fill="white" transform="matrix(0.83205 -0.5547 0 1 145.263 89.6648)"/>
</clipPath>
<clipPath id="clip16_423_418">
<rect width="15" height="14" fill="white" transform="matrix(0.83205 -0.5547 0 1 161.072 79.1255)"/>
</clipPath>
<clipPath id="clip17_423_418">
<rect width="14" height="14" fill="white" transform="matrix(0.83205 -0.5547 0 1 123.969 95.0178)"/>
</clipPath>
<clipPath id="clip18_423_418">
<rect width="15" height="14" fill="white" transform="matrix(0.83205 -0.5547 0 1 138.946 85.0332)"/>
</clipPath>
<clipPath id="clip19_423_418">
<rect width="15" height="14" fill="white" transform="matrix(0.83205 -0.5547 0 1 154.755 74.4939)"/>
</clipPath>
</defs>
</svg>
